# xmcd
#
# Track frame offsets:
#	150
#	21525
#	32775
#	46200
#	58725
#	72300
#	88575
#	106800
#	119625
#	134325
#	151500
#	168075
#	181350
#	198450
#	215925
#
# Disc length: 3177 seconds
#
# Revision: 0
# Processed by: cddbd v1.5PL3 Copyright (c) Steve Scherf et al.
# Submitted via: dBpowerAMP V4.0
#
DISCID=d70c670f
DTITLE=Ray Price - The Original Hits disc two
DYEAR=1990
DGENRE=Country
TTITLE0=Night Life
TTITLE1=Burning Memories
TTITLE2=The Other Woman
TTITLE3=Don't You Ever Get Tired Of Hurting Me
TTITLE4=A Way To Survive
TTITLE5=Touch My Heart
TTITLE6=I'm Still Not Over You
TTITLE7=Crazy
TTITLE8=She Wears My Ring
TTITLE9=For The Good Times
TTITLE10=I Won't Mention It Again
TTITLE11=You Wouldn't Know Love
TTITLE12=You're The Best Thing That Ever Happened To Me
TTITLE13=She's Got To Be A Saint
TTITLE14=Danny Boy
EXTD=CBS-special product\n
EXTT0=
EXTT1=
EXTT2=
EXTT3=
EXTT4=
EXTT5=
EXTT6=
EXTT7=
EXTT8=
EXTT9=
EXTT10=
EXTT11=
EXTT12=
EXTT13=
EXTT14=
PLAYORDER=
